PathFileType	4	(X/Y/Z)	Run_200 02
DataRate	CameraRate	NumFrames	NumMarkers	Units	OrigDataRate	OrigDataStartFrame	OrigNumFrames
120	120	4	41	mm	120	409	125
Frame#	Time	LASI			RASI			LPSI			RPSI			RTH1			RTH3			LTH1			LTH2			LTH3			RTB1			RTB2			RTB3			LTB1			LTB2			LTB3			RCAL			RTOE			RMT5			LCAL			LTOE			LMT5			LACR			RACR			CLAV			C7			RUA1			RUA2			RUA3			RLEL			RMEL			LUA1			LUA2			LUA3			LLEL			LMEL			RFAsuperior			RFAradius			RFAulna			LFAsuperior			LFAradius			LFAulna		
		X1	Y1	Z1	X2	Y2	Z2	X3	Y3	Z3	X4	Y4	Z4	X5	Y5	Z5	X6	Y6	Z6	X7	Y7	Z7	X8	Y8	Z8	X9	Y9	Z9	X10	Y10	Z10	X11	Y11	Z11	X12	Y12	Z12	X13	Y13	Z13	X14	Y14	Z14	X15	Y15	Z15	X16	Y16	Z16	X17	Y17	Z17	X18	Y18	Z18	X19	Y19	Z19	X20	Y20	Z20	X21	Y21	Z21	X22	Y22	Z22	X23	Y23	Z23	X24	Y24	Z24	X25	Y25	Z25	X26	Y26	Z26	X27	Y27	Z27	X28	Y28	Z28	X29	Y29	Z29	X30	Y30	Z30	X31	Y31	Z31	X32	Y32	Z32	X33	Y33	Z33	X34	Y34	Z34	X35	Y35	Z35	X36	Y36	Z36	X37	Y37	Z37	X38	Y38	Z38	X39	Y39	Z39	X40	Y40	Z40	X41	Y41	Z41	

409	  3.408333	902.930257	1030.949100	-389.544399	904.782634	1014.031367	-154.060626	744.903239	1064.350159	-320.299196	741.370236	1062.686821	-222.504352	822.550664	850.306987	-104.136210	768.618962	600.133532	-165.834187	893.607811	846.664511	-449.560648	984.493602	765.032050	-433.582153	952.691646	638.224069	-411.666563	732.955409	369.690155	-246.392166	679.627204	326.617958	-180.198025	664.629334	266.166974	-247.082479	981.451271	422.114429	-341.841175	902.779294	378.286577	-409.851188	892.568424	278.282029	-342.458738	494.934550	160.220235	-240.294091	680.500900	 71.438600	-283.150847	661.746181	 62.882536	-188.039695	737.028393	189.321358	-330.294307	929.830878	111.655008	-334.151396	901.533317	105.744725	-422.577194	850.095345	1491.883988	-453.159380	901.585777	1478.318770	-70.491251	941.363332	1472.267498	-250.836989	820.487625	1536.319639	-269.413185	859.154188	1338.305600	-21.813525	784.526786	1329.896476	-19.864319	830.526114	1258.679096	  7.558049	807.449803	1191.213249	 27.265674	767.565184	1171.323840	-42.489085	753.904577	1397.136129	-509.089068	678.951472	1379.905738	-491.807779	718.131873	1316.591808	-526.622438	645.768645	1268.192054	-545.317892	612.473604	1277.831533	-466.270706	919.035196	1159.459628	-22.976226	1000.254967	1140.949381	-111.134069	996.412829	1078.384703	-77.421061	737.072489	1179.898482	-517.800410	824.823360	1144.445652	-431.085223	804.350367	1095.793714	-474.842036	
410	  3.416667	904.435934	1037.425601	-392.446264	907.105048	1018.575738	-156.047199	746.645689	1071.163514	-320.646594	743.982893	1068.973535	-223.012748	821.935163	856.179233	-105.004598	761.395735	606.953989	-164.806637	894.086439	853.083068	-450.530909	984.192532	770.650664	-433.858127	951.126661	643.341650	-409.436367	725.044816	375.881261	-244.264002	671.569355	333.596082	-178.819348	656.999583	272.347275	-245.139627	986.144349	426.312900	-340.313561	911.147779	377.286015	-408.551326	906.560168	277.219762	-340.690168	485.257661	169.400004	-239.263325	666.003768	 70.941229	-283.032008	646.964968	 63.159114	-187.940839	756.709553	178.654995	-329.128915	954.220229	113.480544	-331.114843	926.826335	104.678893	-419.425752	848.589227	1497.648638	-453.127281	903.233753	1484.921628	-71.489286	941.377176	1478.260346	-251.764557	820.469312	1541.724541	-269.448919	861.856493	1345.065062	-21.962273	787.356468	1336.761291	-19.139412	833.810622	1265.705140	  8.282594	811.130622	1197.834108	 27.684271	770.475629	1177.860101	-41.682832	751.567119	1404.225482	-508.429717	676.762046	1387.311326	-489.781583	715.007631	1324.567680	-526.419671	642.428079	1276.219362	-544.453395	610.176070	1285.387477	-464.865342	922.298290	1168.371089	-24.897886	1002.662093	1151.982288	-114.010460	1000.553932	1089.231315	-80.439001	733.807674	1187.627560	-517.789135	822.417299	1152.007140	-432.019808	801.395638	1103.212070	-475.268847	
411	  3.425000	905.801791	1043.617293	-394.587135	909.105883	1022.910306	-158.938509	748.440527	1077.586251	-321.080456	746.490751	1075.050360	-223.630018	821.558123	862.048705	-105.620195	754.844596	613.823113	-163.533500	894.218154	859.133394	-451.520639	983.105511	775.523016	-434.088628	948.768111	647.885734	-407.441439	716.228543	382.358992	-241.728650	662.361712	340.978812	-176.648333	648.412030	278.762382	-242.694023	990.371092	430.211693	-338.654520	919.333464	376.264502	-407.285917	920.344301	276.442048	-338.735114	476.497180	178.799698	-237.910333	651.673794	 70.831298	-282.725516	632.367270	 63.466895	-187.763002	776.755735	168.681912	-327.926857	978.080544	116.224849	-327.711806	951.957344	104.557599	-415.922906	847.289304	1503.085645	-453.116240	904.725992	1491.114245	-72.472040	941.426848	1483.907595	-252.618288	820.513458	1546.849252	-269.538113	864.321364	1351.493021	-22.095737	789.967198	1343.237272	-18.789078	836.811990	1272.452028	  9.073024	814.378473	1204.185456	 28.078965	772.977831	1184.175222	-40.954074	749.553859	1410.792455	-507.756136	674.919156	1394.051962	-488.084983	712.334238	1331.765202	-526.097641	639.529986	1283.425825	-543.521488	608.292660	1292.242677	-463.419993	925.174673	1176.785036	-26.255205	1004.455036	1162.094932	-116.575147	1003.911936	1099.165910	-83.322505	731.031138	1194.626434	-517.633731	820.669794	1158.959669	-432.914567	798.932403	1110.003797	-475.571319	
412	  3.433333	906.977518	1049.431132	-395.652172	910.886870	1027.134878	-162.368233	750.292306	1083.525716	-321.623021	748.902433	1080.814401	-224.377325	821.333245	867.791718	-106.034663	748.987947	620.639935	-162.147417	893.972071	864.496478	-452.335719	981.275843	779.527081	-434.234810	945.716926	651.831206	-406.002904	706.950259	389.097672	-239.012943	652.396363	348.682054	-173.952332	639.199262	285.355126	-239.903610	994.151384	433.794322	-336.820314	927.420784	375.230116	-406.050943	933.734565	275.993005	-336.596912	468.578653	188.411109	-236.158800	637.552705	 71.297972	-282.188652	617.905618	 63.928365	-187.468088	796.916142	159.535339	-326.749992	1001.110495	119.863006	-323.787747	976.734340	105.477177	-412.017725	846.165242	1508.157021	-453.112895	906.060593	1496.832196	-73.479754	941.494846	1489.147989	-253.446058	820.549565	1551.678314	-269.717398	866.504237	1357.526797	-22.229407	792.262843	1349.229702	-18.807659	839.490536	1278.827790	  9.859147	817.190592	1210.175182	 28.420231	775.076891	1190.123882	-40.310223	747.866250	1416.762035	-507.144763	673.423723	1400.125133	-486.728779	710.139372	1338.097239	-525.692553	637.078843	1289.790990	-542.534521	606.776313	1298.431470	-461.947497	927.615762	1184.539541	-27.269182	1005.697132	1171.193163	-118.897425	1006.528221	1108.088982	-86.064365	728.759796	1200.861356	-517.422820	819.511947	1165.253587	-433.793730	796.980656	1116.133679	-475.839023	
